<?xml version="1.0" encoding="UTF-8" standalone="no"?>
<!-- Created with Inkscape (http://www.inkscape.org/) -->

<svg
   xmlns:osb="http://www.openswatchbook.org/uri/2009/osb"
   xmlns:dc="http://purl.org/dc/elements/1.1/"
   xmlns:cc="http://creativecommons.org/ns#"
   xmlns:rdf="http://www.w3.org/1999/02/22-rdf-syntax-ns#"
   xmlns:svg="http://www.w3.org/2000/svg"
   xmlns="http://www.w3.org/2000/svg"
   xmlns:xlink="http://www.w3.org/1999/xlink"
   xmlns:sodipodi="http://sodipodi.sourceforge.net/DTD/sodipodi-0.dtd"
   xmlns:inkscape="http://www.inkscape.org/namespaces/inkscape"
   version="1.1"
   id="svg3713"
   xml:space="preserve"
   width="10in"
   height="10in"
   viewBox="0 0 960 960"
   sodipodi:docname="vantage_hoodie_bolster.svg"
   inkscape:version="0.92.4 (5da689c313, 2019-01-14)"
   inkscape:export-filename="C:\Users\me\vantage_hoodie_bolster.png"
   inkscape:export-xdpi="300"
   inkscape:export-ydpi="300"><metadata
     id="metadata3719"><rdf:RDF><cc:Work
         rdf:about=""><dc:format>image/svg+xml</dc:format><dc:type
           rdf:resource="http://purl.org/dc/dcmitype/StillImage" /><dc:title></dc:title></cc:Work></rdf:RDF></metadata><defs
     id="defs3717"
     style="stroke-linecap:butt;stroke-linejoin:round"><linearGradient
       id="linearGradient6054"
       osb:paint="solid"><stop
         style="stop-color:#000000;stop-opacity:1;"
         offset="0"
         id="stop6052" /></linearGradient><clipPath
       clipPathUnits="userSpaceOnUse"
       id="clipPath3729"><path
         d="M 0,792 H 612 V 0 H 0 Z"
         id="path3727"
         inkscape:connector-curvature="0" /></clipPath><style
       id="style34439"
       type="text/css">*{stroke-linejoin: round; stroke-linecap: butt}</style><path
       d="M 0,2.828427 C 0.750108,2.828427 1.469594,2.530406 2,2 2.530406,1.469594 2.828427,0.750108 2.828427,0 2.828427,-0.750108 2.530406,-1.469594 2,-2 1.469594,-2.530406 0.750108,-2.828427 0,-2.828427 c -0.750108,0 -1.469594,0.298021 -2,0.828427 -0.530406,0.530406 -0.828427,1.249892 -0.828427,2 0,0.750108 0.298021,1.469594 0.828427,2 0.530406,0.530406 1.249892,0.828427 2,0.828427 z"
       id="C0_0_98d159f42a"
       inkscape:connector-curvature="0"
       style="stroke-linecap:butt;stroke-linejoin:round" /><path
       style="stroke:#0072bc;stroke-linecap:butt;stroke-linejoin:round"
       d="M 0,11.313708 11.313708,-11.313708 H -11.313708 Z"
       id="m8eb50f9df1"
       inkscape:connector-curvature="0" /><clipPath
       id="p1b22c4d703"
       style="stroke-linecap:butt;stroke-linejoin:round"><rect
         id="rect53107"
         height="652.32001"
         width="580.12262"
         y="103.68"
         x="152.73869"
         style="stroke-linecap:butt;stroke-linejoin:round" /></clipPath><clipPath
       clipPathUnits="userSpaceOnUse"
       id="clipPath62517"
       style="stroke-linecap:butt;stroke-linejoin:round"><path
         d="M 591.20492,199.25629 H 176.0996 c -98.465335,0 44.87866,168.91599 44.87866,168.91599 -5.81067,-10.064 1.45333,-22.644 13.07333,-22.644 h 272.704 z"
         style="fill:none;fill-opacity:1;stroke:#0072bc;stroke-width:12.96700001;stroke-linecap:round;stroke-linejoin:round;stroke-miterlimit:10;stroke-dasharray:none;stroke-opacity:1"
         id="path62519"
         inkscape:connector-curvature="0"
         inkscape:label="path3737" /></clipPath><clipPath
       clipPathUnits="userSpaceOnUse"
       id="clipPath62536"
       style="stroke-linecap:butt;stroke-linejoin:round"><path
         d="M 394.92866,669.46534 223.61399,372.73735 c -0.756,-1.32267 -1.58533,-2.612 -2.28533,-3.956 l -0.35067,-0.60933 c 0,0 0,0 -0.001,-10e-4 -0.0707,-0.084 -140.777329,-165.92399 -47.43866,-168.87066 -96.961335,1.83333 -157.013334,107.29067 -108.210668,191.82 L 224.71799,667.19334 c 4.64267,7.55067 10.20134,14.69467 16.74267,21.236 45.30133,45.30133 118.75066,45.30133 164.052,0 4.88933,-4.89066 9.14666,-10.16133 12.98133,-15.63733 -6.75733,6.57467 -18.488,5.468 -23.56533,-3.32667 z"
         style="fill:none;fill-opacity:1;stroke:#0072bc;stroke-width:12.96700001;stroke-linecap:round;stroke-linejoin:round;stroke-miterlimit:10;stroke-dasharray:none;stroke-opacity:1"
         id="path62538"
         inkscape:connector-curvature="0" /></clipPath><clipPath
       clipPathUnits="userSpaceOnUse"
       id="clipPath81230"
       style="stroke-linecap:butt;stroke-linejoin:round"><path
         d="m 687.35518,208.25722 -92.32666,159.91466 -173.952,301.29333 c -0.73066,1.268 -1.604,2.37067 -2.57733,3.32 -3.836,5.47867 -8.09467,10.752 -12.98667,15.644 -45.30133,45.30133 -118.75066,45.30133 -164.05199,0 -8.28,-8.28 -15.00934,-17.516 -20.26267,-27.33333 l 76.03333,131.69333 c 24.616,42.636 67.69333,63.95466 110.772,63.95466 43.07867,0 86.156,-21.31866 110.772,-63.95466 L 750.67918,391.11988 c 40.7,-70.49466 5.66,-155.49466 -63.324,-182.86266 z"
         style="fill:none;fill-opacity:1;stroke:#0072bc;stroke-width:12.96700001;stroke-linecap:round;stroke-linejoin:round;stroke-miterlimit:10;stroke-dasharray:none;stroke-opacity:1"
         id="path81232"
         inkscape:connector-curvature="0" /></clipPath></defs><sodipodi:namedview
     pagecolor="#000000"
     bordercolor="#666666"
     borderopacity="1"
     objecttolerance="10"
     gridtolerance="10"
     guidetolerance="10"
     inkscape:pageopacity="0"
     inkscape:pageshadow="2"
     inkscape:window-width="1920"
     inkscape:window-height="1017"
     id="namedview3715"
     showgrid="false"
     inkscape:zoom="0.28391409"
     inkscape:cx="-1298.0228"
     inkscape:cy="409.12699"
     inkscape:window-x="1672"
     inkscape:window-y="-8"
     inkscape:window-maximized="1"
     inkscape:current-layer="layer1"
     inkscape:document-units="in"
     units="in"
     fit-margin-top="0"
     fit-margin-left="0"
     fit-margin-right="0"
     fit-margin-bottom="0" /><g
     inkscape:groupmode="layer"
     id="layer1"
     inkscape:label="maps"
     style="display:inline;stroke-linecap:butt;stroke-linejoin:round"
     transform="translate(-41.609533,96.77262)"><image
       sodipodi:absref="C:\Users\me\Dropbox\notebooks\hou.png"
       y="-204.53798"
       x="-88.888832"
       id="image62467"
       xlink:href="file:///C:/Users/me/Dropbox/notebooks/hou.png"
       preserveAspectRatio="none"
       height="773.43396"
       width="833.20752"
       style="stroke-linecap:butt;stroke-linejoin:round"
       clip-path="url(#clipPath62517)"
       inkscape:label="hou"
       transform="translate(133.8433,-147.93207)" /><image
       sodipodi:absref="C:\Users\me\Dropbox\notebooks\bfs.png"
       y="93.96228"
       x="-280.86792"
       id="image62529"
       xlink:href="file:///C:/Users/me/Dropbox/notebooks/bfs.png"
       preserveAspectRatio="none"
       height="867.89478"
       width="958.9812"
       style="stroke-linecap:butt;stroke-linejoin:round"
       inkscape:label="bfs"
       clip-path="url(#clipPath62536)"
       transform="translate(133.8433,-147.93207)" /><image
       sodipodi:absref="C:\Users\me\Dropbox\notebooks\sc.png"
       y="40.415077"
       x="46.641491"
       id="image81227"
       xlink:href="file:///C:/Users/me/Dropbox/notebooks/sc.png"
       preserveAspectRatio="none"
       height="1052.3774"
       width="1052.3774"
       style="stroke-linecap:butt;stroke-linejoin:round"
       inkscape:label="sc"
       clip-path="url(#clipPath81230)"
       transform="translate(133.8433,-147.93207)" /></g><g
     id="g3721"
     inkscape:groupmode="layer"
     inkscape:label="clips"
     transform="matrix(1.3333333,0,0,-1.3333333,-41.609533,1152.7726)"
     style="display:inline"><g
       id="g3723"
       transform="translate(100.38248,110.94906)"><g
         id="g3725"
         clip-path="url(#clipPath3729)"><g
           id="g3731"
           transform="translate(515.5164,635.8071)" /><g
           id="g3735"
           transform="translate(443.4037,642.5578)" /><g
           id="g3739"
           transform="translate(296.1965,289.901)" /><g
           id="g3743"
           transform="translate(165.7319,515.874)"><path
             d="M 0,0 C -0.178,0.309 -0.243,0.633 -0.389,0.948 -0.596,1.365 -0.784,1.788 -0.985,2.207 -0.742,1.461 -0.416,0.722 0,0 Z"
             style="fill:none;stroke:#01abee;stroke-width:0.5;stroke-linecap:butt;stroke-linejoin:miter;stroke-miterlimit:10;stroke-dasharray:none;stroke-opacity:1"
             id="path3745"
             inkscape:connector-curvature="0" /></g></g></g></g><g
     style="display:inline;stroke-linecap:butt;stroke-linejoin:round"
     transform="matrix(1.3333333,0,0,-1.3333333,-41.609533,1152.7726)"
     inkscape:label="vantage-logo-template copy"
     inkscape:groupmode="layer"
     id="g62511"><g
       id="g62509"
       style="stroke-linecap:butt;stroke-linejoin:round"
       transform="translate(100.38248,110.94906)"><g
         clip-path="url(#clipPath3729)"
         id="g62507"
         style="stroke-linecap:butt;stroke-linejoin:round"><g
           transform="translate(515.5164,635.8071)"
           id="g62493"
           style="stroke-linecap:butt;stroke-linejoin:round"><path
             inkscape:connector-curvature="0"
             id="path62491"
             style="fill:none;fill-opacity:1;stroke:#0072bc;stroke-width:9.72525024;stroke-linecap:round;stroke-linejoin:round;stroke-miterlimit:10;stroke-dasharray:none;stroke-opacity:1"
             d="m 0,0 -69.245,-119.936 -130.464,-225.97 c -0.548,-0.951 -1.203,-1.778 -1.933,-2.49 -2.877,-4.109 -6.071,-8.064 -9.74,-11.733 -33.976,-33.976 -89.063,-33.976 -123.039,0 -6.21,6.21 -11.257,13.137 -15.197,20.5 l 57.025,-98.77 c 18.462,-31.977 50.77,-47.966 83.079,-47.966 32.309,0 64.617,15.989 83.079,47.966 L 47.493,-137.147 C 78.018,-84.276 51.738,-20.526 0,0 Z" /></g><g
           transform="translate(443.4037,642.5578)"
           id="g62497"
           style="stroke-linecap:butt;stroke-linejoin:round"><path
             inkscape:label="path3737"
             inkscape:connector-curvature="0"
             id="path62495"
             style="fill:none;fill-opacity:1;stroke:#0072bc;stroke-width:9.72525024;stroke-linecap:round;stroke-linejoin:round;stroke-miterlimit:10;stroke-dasharray:none;stroke-opacity:1"
             d="m 0,0 h -311.329 c -73.849,0 33.659,-126.687 33.659,-126.687 -4.358,7.548 1.09,16.983 9.805,16.983 h 204.528 z" /></g><g
           transform="translate(296.1965,289.901)"
           id="g62501"
           style="stroke-linecap:butt;stroke-linejoin:round"><path
             inkscape:connector-curvature="0"
             id="path62499"
             style="fill:none;fill-opacity:1;stroke:#0072bc;stroke-width:9.72525024;stroke-linecap:round;stroke-linejoin:round;stroke-miterlimit:10;stroke-dasharray:none;stroke-opacity:1"
             d="m 0,0 -128.486,222.546 c -0.567,0.992 -1.189,1.959 -1.714,2.967 l -0.263,0.457 c 0,0 0,0 -0.001,0.001 -0.053,0.063 -105.583,124.443 -35.579,126.653 -72.721,-1.375 -117.76,-80.468 -81.158,-143.865 L -127.658,1.704 c 3.482,-5.663 7.651,-11.021 12.557,-15.927 33.976,-33.976 89.063,-33.976 123.039,0 3.667,3.668 6.86,7.621 9.736,11.728 C 12.606,-7.426 3.808,-6.596 0,0 Z" /></g><g
           transform="translate(165.7319,515.874)"
           id="g62505"
           style="stroke-linecap:butt;stroke-linejoin:round"><path
             inkscape:connector-curvature="0"
             id="path62503"
             style="fill:none;stroke:#01abee;stroke-width:0.5;stroke-linecap:butt;stroke-linejoin:miter;stroke-miterlimit:10;stroke-dasharray:none;stroke-opacity:1"
             d="M 0,0 C -0.178,0.309 -0.243,0.633 -0.389,0.948 -0.596,1.365 -0.784,1.788 -0.985,2.207 -0.742,1.461 -0.416,0.722 0,0 Z" /></g></g></g></g></svg>